#!OML:ASF H:\Terrain\Patient Classification 1\Takeo\Monday\TakeoMonday.ASF
:FULLY-SPECIFIED
:DEGREES
63
root 8.9096 16.4774 -12.3059 0.194363 -3.42543 1.96152
lowerback 12.6145 0.0676301 -1.38219
upperback 3.12023 -0.156997 -1.44388
thorax -3.79735 -0.0715394 -0.702098
lowerneck -10.9759 0.68568 -1.80534
upperneck -13.8937 1.38138 3.68492
head -2.64399 0.700915 1.5122
rclavicle 4.22417e-015 1.63003e-014
rhumerus -49.7296 18.9784 -92.8417
rradius 86.58
rwrist -10.5674
rhand -39.334 49.0445
rfingers 7.12502
rthumb -12.3257 19.4278
lclavicle 4.22417e-015 1.63003e-014
lhumerus -41.2085 -8.21465 88.4132
lradius 100.838
lwrist 27.3934
lhand -32.9788 3.84279
lfingers 7.12502
lthumb -6.19379 33.7322
rfemur -12.9295 1.92736 18.1685
rtibia 95.3753
rfoot 0.175365 -11.9853
rtoes -18.3191
lfemur -20.4509 -5.78555 -30.3219
ltibia 46.0624
lfoot -21.9471 5.28937
ltoes 1.13531
64
root 8.89133 16.4084 -11.9559 -0.231397 -3.20275 3.18739
lowerback 13.1826 0.18719 -2.87265
upperback 3.20211 -0.22287 -1.68961
thorax -4.01622 -0.0921182 -0.109191
lowerneck -10.3371 0.59638 -2.77646
upperneck -14.5012 1.44343 4.6876
head -2.99136 0.749993 2.02543
rclavicle 2.73329e-015 3.37934e-015
rhumerus -51.7308 17.9729 -92.7581
rradius 84.6153
rwrist -10.0078
rhand -39.7893 49.4781
rfingers 7.12502
rthumb -12.7647 19.8883
lclavicle 2.73329e-015 3.37934e-015
lhumerus -37.8459 -10.1655 88.1499
lradius 101.782
lwrist 27.4186
lhand -32.6711 3.30757
lfingers 7.12502
lthumb -5.89671 33.2055
rfemur -15.4091 1.40735 16.5663
rtibia 98.8443
rfoot -1.4787 -12.831
rtoes -17.0691
lfemur -19.0017 -5.58527 -31.8664
ltibia 46.7571
lfoot -23.1545 4.73909
ltoes 1.90181
65
root 8.87368 16.3569 -11.6066 -0.0939389 -3.0901 4.01748
lowerback 13.2472 0.29676 -3.85688
upperback 3.10002 -0.230857 -1.96454
thorax -4.15441 -0.0857474 0.157823
lowerneck -9.44438 0.474142 -3.58977
upperneck -15.3864 1.44337 5.61502
head -3.48638 0.7548 2.50398
rclavicle -7.00716e-015 -1.45113e-014
rhumerus -53.6742 16.8304 -92.8407
rradius 82.7244
rwrist -9.66961
rhand -39.8214 49.9126
rfingers 7.12502
rthumb -12.7956 20.3248
lclavicle -7.00716e-015 -1.45113e-014
lhumerus -34.6233 -12.3659 87.6146
lradius 102.715
lwrist 27.3743
lhand -32.8453 3.62704
lfingers 7.12502
lthumb -6.06489 33.5202
rfemur -18.7334 1.09786 15.5749
rtibia 101.967
rfoot -2.56577 -13.5348
rtoes -17.1091
lfemur -17.9884 -5.18668 -32.8665
ltibia 47.1579
lfoot -24.2101 3.87073
ltoes 3.80542
66
root 8.85433 16.3199 -11.2649 0.440751 -2.79258 3.84793
lowerback 13.0466 0.192951 -3.79479
upperback 2.91677 -0.355198 -1.96961
thorax -4.23405 -0.144553 0.137779
lowerneck -8.49723 0.385313 -4.46106
upperneck -16.5998 1.51657 6.60612
head -3.65044 0.768752 2.77195
rclavicle 3.97569e-016 -1.59028e-015
rhumerus -55.4301 15.9898 -92.9619
rradius 80.9811
rwrist -10.0904
rhand -39.374 50.2064
rfingers 7.12502
rthumb -12.3642 20.592
lclavicle 3.97569e-016 -1.59028e-015
lhumerus -31.6618 -14.2996 86.9631
lradius 103.578
lwrist 26.8292
lhand -33.071 4.03
lfingers 7.12502
lthumb -6.2828 33.9168
rfemur -22.4429 0.832823 15.9924
rtibia 104.577
rfoot -3.2103 -14.5913
rtoes -16.259
lfemur -17.2589 -4.81519 -32.6837
ltibia 47.3165
lfoot -25.0966 2.85566
ltoes 4.97443
67
root 8.83127 16.2956 -10.9205 0.806803 -2.62373 3.42436
lowerback 12.9158 0.0248316 -3.64786
upperback 2.80289 -0.546423 -1.80608
thorax -4.27621 -0.238053 0.257325
lowerneck -10.5768 0.272955 -2.52461
upperneck -14.3293 0.958639 4.40551
head -2.86267 0.504799 1.87941
rclavicle -1.0138e-014 2.78299e-015
rhumerus -57.1203 15.7022 -93.1068
rradius 79.5332
rwrist -11.0402
rhand -39.1496 50.5925
rfingers 7.12502
rthumb -12.1479 20.9652
lclavicle -1.0138e-014 2.78299e-015
lhumerus -29.0502 -15.564 86.1576
lradius 104.476
lwrist 25.8719
lhand -32.4697 3.67713
lfingers 7.12502
lthumb -5.70219 33.5804
rfemur -25.8927 0.896114 16.8532
rtibia 106.671
rfoot -4.39136 -15.6187
rtoes -16.1466
lfemur -16.2144 -4.27512 -32.2017
ltibia 47.1653
lfoot -25.7736 2.11304
ltoes 4.11249
68
root 8.81047 16.2887 -10.5557 0.70021 -2.36163 3.23309
lowerback 13.0125 -0.173355 -3.66811
upperback 2.88581 -0.80882 -1.72986
thorax -4.2325 -0.368237 0.391643
lowerneck -11.4705 0.2511 -1.68236
upperneck -13.5829 0.759504 3.44901
head -2.43236 0.393972 1.4032
rclavicle 4.02539e-015 -3.97569e-016
rhumerus -58.6278 15.3479 -93.1958
rradius 78.2444
rwrist -11.2713
rhand -39.989 50.7203
rfingers 7.12502
rthumb -12.9571 21.1426
lclavicle 4.02539e-015 -3.97569e-016
lhumerus -26.626 -16.7966 85.1883
lradius 105.542
lwrist 25.2989
lhand -32.2181 3.04783
lfingers 7.12502
lthumb -5.45936 32.9575
rfemur -28.3603 1.00077 17.4538
rtibia 108.093
rfoot -6.07024 -16.4008
rtoes -16.6722
lfemur -14.3686 -3.88708 -32.0186
ltibia 46.6609
lfoot -26.1663 1.60238
ltoes 2.42821
69
root 8.79201 16.3021 -10.1737 0.410936 -1.85812 3.58172
lowerback 13.0891 -0.426385 -4.21396
upperback 3.04872 -1.21317 -1.72698
thorax -4.0774 -0.566461 0.767046
lowerneck -11.5103 0.313509 -2.04096
upperneck -13.6537 0.894476 3.67231
head -2.45933 0.473563 1.54165
rclavicle -1.44616e-014 -1.11319e-014
rhumerus -59.8758 15.0718 -93.1016
rradius 77.0012
rwrist -10.9062
rhand -40.6543 50.4911
rfingers 7.12502
rthumb -13.5985 20.9552
lclavicle -1.44616e-014 -1.11319e-014
lhumerus -24.5014 -17.9812 84.4013
lradius 106.814
lwrist 25.4276
lhand -32.97 2.96431
lfingers 7.12502
lthumb -6.18522 32.854
rfemur -30.1683 0.885568 17.3382
rtibia 108.871
rfoot -7.03663 -16.5521
rtoes -15.6749
lfemur -12.0467 -3.82403 -32.4319
ltibia 45.7364
lfoot -26.3079 1.26573
ltoes 0.62225
70
root 8.77368 16.3357 -9.79479 0.48032 -1.4099 3.58928
lowerback 13.0248 -0.75046 -4.53399
upperback 2.9356 -1.67424 -1.52733
thorax -4.1251 -0.787827 1.22958
lowerneck -11.3302 0.508594 -2.71093
upperneck -13.5177 1.2435 4.09587
head -2.4672 0.670163 1.80357
rclavicle 1.44119e-015 -1.59028e-015
rhumerus -61.3784 15.2194 -93.0522
rradius 76.0669
rwrist -10.5662
rhand -40.8119 50.4146
rfingers 7.12502
rthumb -13.7503 20.8889
lclavicle 1.44119e-015 -1.59028e-015
lhumerus -22.9972 -18.7282 83.8751
lradius 108.175
lwrist 25.6169
lhand -33.5392 2.84998
lfingers 7.12502
lthumb -6.73471 32.7229
rfemur -32.5692 1.04657 17.619
rtibia 109.191
rfoot -7.22743 -16.2316
rtoes -12.8597
lfemur -10.0324 -3.82205 -32.3924
ltibia 44.5119
lfoot -26.0917 0.721337
ltoes 0.81667
71
root 8.75521 16.3958 -9.41072 0.812501 -1.11719 3.04905
lowerback 12.8107 -1.08185 -4.2277
upperback 2.64648 -2.05446 -1.21717
thorax -4.29103 -0.970221 1.44131
lowerneck -11.4352 0.75078 -2.59254
upperneck -12.9505 1.49882 3.56692
head -2.25922 0.802078 1.60671
rclavicle 2.66371e-014 4.77083e-015
rhumerus -63.1998 15.3234 -93.1766
rradius 75.5391
rwrist -9.9904
rhand -41.1661 50.8979
rfingers 7.12502
rthumb -14.0917 21.3957
lclavicle 2.66371e-014 4.77083e-015
lhumerus -21.9799 -19.3645 83.4154
lradius 109.598
lwrist 25.5674
lhand -33.3627 2.53796
lfingers 7.12502
lthumb -6.56433 32.4162
rfemur -35.1162 1.60437 18.5683
rtibia 108.862
rfoot -7.63816 -15.8257
rtoes -10.6945
lfemur -8.20099 -3.99163 -31.7435
ltibia 43.1236
lfoot -25.4855 -0.0119451
ltoes 3.1136
72
root 8.74004 16.4619 -9.01767 1.17776 -0.863395 2.61931
lowerback 12.3582 -1.43807 -3.88232
upperback 2.45485 -2.45235 -0.995954
thorax -4.227 -1.1689 1.52992
lowerneck -11.3708 0.992376 -2.37052
upperneck -12.8271 1.75262 3.03475
head -2.22676 0.924601 1.39599
rclavicle 1.45113e-014 6.36111e-015
rhumerus -64.7081 15.3348 -93.3354
rradius 75.1104
rwrist -9.37403
rhand -41.0488 51.3708
rfingers 7.12502
rthumb -13.9786 21.8608
lclavicle 1.45113e-014 6.36111e-015
lhumerus -20.9871 -19.904 82.7998
lradius 110.885
lwrist 25.5748
lhand -33.2634 2.43656
lfingers 7.12502
lthumb -6.46852 32.3178
rfemur -37.3411 2.34539 19.3529
rtibia 108.027
rfoot -8.06909 -15.1827
rtoes -11.3359
lfemur -6.33547 -4.54684 -31.3445
ltibia 41.6814
lfoot -24.8083 0.0299375
ltoes 3.16071
73
root 8.72874 16.5342 -8.62241 1.56454 -0.617317 1.97068
lowerback 11.8105 -1.84367 -3.22804
upperback 2.30424 -2.87548 -0.761065
thorax -4.08144 -1.3863 1.45399
lowerneck -11.1094 1.15763 -2.85789
upperneck -12.9708 2.04608 3.45976
head -2.34206 1.0826 1.62449
rclavicle 7.30534e-015 7.7526e-015
rhumerus -65.852 15.3817 -93.523
rradius 74.5488
rwrist -8.93184
rhand -40.7337 51.7752
rfingers 7.12502
rthumb -13.675 22.2445
lclavicle 7.30534e-015 7.7526e-015
lhumerus -20.1013 -20.3614 82.1327
lradius 112.046
lwrist 25.7688
lhand -33.2433 2.72948
lfingers 7.12502
lthumb -6.44908 32.6113
rfemur -39.4598 3.36012 20.3446
rtibia 106.784
rfoot -8.51877 -14.3835
rtoes -14.5399
lfemur -4.51836 -5.12703 -30.7539
ltibia 40.2017
lfoot -23.9079 0.771461
ltoes 0.12582
74
root 8.71762 16.6152 -8.21953 1.99014 -0.453779 1.69447
lowerback 11.1859 -2.15271 -3.00561
upperback 2.04589 -3.23273 -0.577563
thorax -3.99219 -1.56448 1.55058
lowerneck -11.4392 1.40017 -2.79525
upperneck -12.3527 2.33624 3.21179
head -2.08553 1.23093 1.53535
rclavicle -9.24349e-015 -1.98785e-015
rhumerus -67.1176 15.294 -93.6279
rradius 74.0722
rwrist -8.35528
rhand -41.1159 52.2039
rfingers 7.12502
rthumb -14.0433 22.6984
lclavicle -9.24349e-015 -1.98785e-015
lhumerus -19.7665 -20.9705 81.8398
lradius 113.253
lwrist 26.1656
lhand -33.3085 3.09852
lfingers 7.12502
lthumb -6.51204 32.9784
rfemur -41.4075 4.3997 20.7904
rtibia 105.146
rfoot -9.46652 -13.4494
rtoes -18.6205
lfemur -2.77521 -5.43815 -30.5669
ltibia 38.6509
lfoot -22.3299 1.6942
ltoes -5.21078
75
root 8.71099 16.6986 -7.80479 2.28847 -0.398694 2.03472
lowerback 10.6053 -2.39054 -3.45569
upperback 1.78152 -3.57915 -0.455463
thorax -3.89543 -1.72945 1.95434
lowerneck -12.2699 1.72939 -1.8618
upperneck -11.1763 2.57635 1.77948
head -1.533 1.33167 0.92256
rclavicle -5.24295e-014 4.77083e-015
rhumerus -68.5405 15.2369 -93.5127
rradius 73.9533
rwrist -8.20518
rhand -41.2722 52.078
rfingers 7.12502
rthumb -14.1939 22.5829
lclavicle -5.24295e-014 4.77083e-015
lhumerus -19.6986 -21.4858 81.7693
lradius 114.204
lwrist 26.8671
lhand -34.1668 2.3076
lfingers 7.12502
lthumb -7.34056 32.1603
rfemur -42.9496 5.38928 20.4078
rtibia 103.153
rfoot -10.5032 -12.4225
rtoes -21.6072
lfemur -0.909157 -5.63833 -31.1109
ltibia 37.1008
lfoot -20.1472 2.30855
ltoes -10.3856
76
root 8.70844 16.8079 -7.37921 2.35511 -0.328065 1.8888
lowerback 10.1951 -2.69974 -3.35111
upperback 1.64566 -3.95424 -0.200524
thorax -3.77764 -1.91694 2.18974
lowerneck -12.8342 1.99838 -1.64209
upperneck -10.1978 2.86557 1.05966
head -1.12109 1.47128 0.674496
rclavicle 9.2087e-014 -7.95139e-016
rhumerus -69.8336 15.3326 -93.3728
rradius 74.0522
rwrist -8.51958
rhand -41.0015 51.9124
rfingers 7.12502
rthumb -13.933 22.3992
lclavicle 9.2087e-014 -7.95139e-016
lhumerus -19.6001 -21.7068 81.6639
lradius 114.872
lwrist 27.3661
lhand -34.8996 1.53534
lfingers 7.12502
lthumb -8.04789 31.3621
rfemur -43.8415 6.44803 20.5241
rtibia 100.664
rfoot -11.2278 -11.5105
rtoes -22.2579
lfemur 1.19981 -6.10068 -31.1788
ltibia 35.4891
lfoot -17.6172 2.60872
ltoes -14.5325
